<?xml version="1.0" encoding="utf-8"?>
<!-- Generator: Adobe Illustrator 22.0.1, SVG Export Plug-In . SVG Version: 6.00 Build 0)  -->
<svg version="1.1" id="Layer_1" xmlns="http://www.w3.org/2000/svg" xmlns:xlink="http://www.w3.org/1999/xlink" x="0px" y="0px"
	 viewBox="0 0 100 100" style="enable-background:new 0 0 100 100;" xml:space="preserve">
<style type="text/css">
	.st0{fill:#E6E7E8;}
	.st1{fill:none;stroke:#231F20;stroke-width:0.75;stroke-linecap:round;stroke-miterlimit:10;}
	.st2{fill:#FFE51F;}
	.st3{fill:#FF0A94;}
	.st4{fill:#50C1FF;}
	.st5{fill:none;}
</style>
<circle class="st0" cx="50.2" cy="50.1" r="48.1"/>
<g>
	<line class="st1" x1="10.1" y1="44.8" x2="84.5" y2="20"/>
	<line class="st1" x1="10.1" y1="44.8" x2="84.5" y2="20"/>
	<line class="st1" x1="84.3" y1="39.4" x2="10.5" y2="25.4"/>
	<line class="st1" x1="60.4" y1="58.1" x2="34.4" y2="6.7"/>
	<line class="st1" x1="27.2" y1="58.4" x2="67.6" y2="6.5"/>
</g>
<polyline class="st1" points="81.6,60.4 77.2,38.1 78,22.1 65.6,8.9 36.4,10.7 16.8,26.5 19,41.9 33.3,50.6 55.8,49 71.6,37 
	71.6,24.3 62.7,12.7 38.2,14.3 24.1,28.1 27,39.2 39.3,43 52.6,43 62.9,35.4 65.1,25.6 57.5,19.2 41.5,20.9 31.7,29.4 34.6,36.8 
	43.1,38.1 50,37.4 56,34.1 60,28.3 54.2,23.6 44.2,26.3 39.7,31 42.6,34.1 46,34.3 "/>
<g>
	<polygon points="84.3,52.1 87.6,45.7 93.2,44.1 88.7,46.6 86.1,52.6 	"/>
	<polygon points="85.4,53.7 91.9,50.1 97.2,51.9 92.1,51.5 86.7,54.8 	"/>
	<polygon points="78,53.9 71.6,50.6 66.2,52.6 71.4,51.9 76.9,55 	"/>
	<polygon points="77.4,55.7 70.2,56.6 66.9,61 70.9,57.7 77.2,57.5 	"/>
	<g>
		<ellipse transform="matrix(0.9701 -0.2428 0.2428 0.9701 -11.1287 21.5484)" cx="81.9" cy="55.9" rx="6.9" ry="5.6"/>
		<circle class="st2" cx="78.5" cy="55.9" r="2"/>
		<circle class="st2" cx="84.5" cy="53.7" r="2"/>
		<circle cx="84.5" cy="54.6" r="0.7"/>
		<circle cx="79.2" cy="56.6" r="0.7"/>
	</g>
</g>
<circle class="st3" cx="63.8" cy="26.1" r="3.1"/>
<circle class="st4" cx="38.2" cy="14.9" r="3.8"/>
<circle class="st2" cx="40.8" cy="34.5" r="2.7"/>
<g>
	<path class="st5" d="M75.2,75.5c0.7-0.6,1-1.3,1-2.3c0-0.4-0.1-0.8-0.2-1.2c-0.1-0.4-0.3-0.7-0.5-1.1s-0.4-0.6-0.7-0.8
		c-0.3-0.2-0.6-0.3-0.9-0.3c-0.5,0-1,0.2-1.4,0.5c-0.4,0.3-0.7,0.7-1,1.1l-0.2,0.2v4.6c0.4,0.1,0.8,0.1,1.1,0.1
		C73.7,76.3,74.5,76,75.2,75.5z"/>
	<path class="st5" d="M30.8,76.7c0.3,0.3,0.7,0.4,1.2,0.4c0.5,0,0.9-0.1,1.3-0.4s0.7-0.6,1-1.1c0.3-0.4,0.5-0.9,0.6-1.4
		c0.1-0.5,0.2-0.9,0.2-1.3c0-0.4,0-0.7-0.1-1.1c-0.1-0.4-0.2-0.7-0.4-1s-0.4-0.5-0.6-0.7c-0.2-0.2-0.5-0.3-0.8-0.3
		c-0.4,0-0.8,0.1-1.1,0.3c-0.3,0.2-0.7,0.5-0.9,0.8c-0.3,0.3-0.5,0.6-0.7,1c-0.2,0.4-0.3,0.7-0.4,1.1C30,73.5,30,73.9,30,74.4
		s0.1,0.9,0.2,1.3C30.3,76.1,30.5,76.4,30.8,76.7z"/>
	<path d="M83.6,83.5c-0.2,0.1-0.4,0.1-0.6,0.1c-0.3,0-0.6-0.1-0.8-0.3c-0.2-0.2-0.3-0.5-0.3-0.8c0,0,0-0.1,0-0.2s0-0.1,0-0.2
		c0.3-0.5,0.6-1,0.9-1.5c0,0,0,0,0,0c-2.9,0-6.7-0.1-11.2-0.1v2.8c0,0.4-0.2,0.7-0.4,0.9c-0.3,0.2-0.5,0.3-0.8,0.3
		c-0.3,0-0.5-0.1-0.8-0.3s-0.4-0.5-0.4-0.8v-2.9c-18-0.1-43.7-0.1-52.3-0.1c0,0.4-0.1,0.7-0.4,0.9c-0.2,0.2-0.5,0.3-0.8,0.3
		c-0.3,0-0.5-0.1-0.8-0.3c-0.2-0.2-0.3-0.4-0.4-0.7c0,0,0,0.1,0,0.1c0.1,2.2,21.7,11.5,36.2,11.5C63.3,92.2,75.1,88.9,83.6,83.5
		c0.2-0.1,0.4-0.2,0.5-0.4C83.9,83.3,83.7,83.4,83.6,83.5z"/>
	<path d="M15.3,80.4c0.4,0,1,0,1.5,0v0v-9.5h0.6c0.4,0,0.7,0,1.1,0c0.4,0,0.7,0,1-0.1c0.3-0.1,0.6-0.2,0.8-0.4
		c0.2-0.2,0.3-0.4,0.3-0.7c0-0.2-0.1-0.4-0.2-0.6c-0.2-0.2-0.4-0.4-0.8-0.5l-2.8,0.1V66c0.2-1.1,0.7-1.7,1.4-1.7
		c0.2,0,0.4,0,0.6,0.1c0.2,0.1,0.4,0.2,0.6,0.2h0c0.2,0.1,0.4,0.2,0.6,0.2c0.2,0.1,0.4,0.1,0.6,0.1c0.3,0,0.6-0.1,0.8-0.3
		c0.2-0.2,0.3-0.4,0.3-0.7c0-0.3-0.1-0.6-0.4-0.8c-0.3-0.2-0.6-0.4-1-0.6s-0.8-0.3-1.1-0.3s-0.7-0.1-1-0.1c-0.6,0-1.1,0.1-1.5,0.3
		c-0.5,0.2-0.9,0.5-1.2,0.8c-0.3,0.4-0.6,0.8-0.8,1.3s-0.3,1-0.3,1.6v2.6h-0.2c-0.5,0-0.8,0.1-1,0.4c-0.2,0.2-0.3,0.5-0.3,0.7
		c0,0.3,0.1,0.5,0.3,0.7c0.2,0.2,0.5,0.3,0.9,0.4h0.3v9.5c0,0.1,0,0.1,0,0.1C14.4,78.6,14.8,80.4,15.3,80.4z"/>
	<path d="M15.6,81.6c0.3,0,0.6-0.1,0.8-0.3c0.2-0.2,0.4-0.5,0.4-0.9c-0.6,0-1.1,0-1.5,0c-0.4,0-0.9-1.8-0.8,0.2
		c0.1,0.3,0.2,0.5,0.4,0.7C15.1,81.6,15.3,81.6,15.6,81.6z"/>
	<path d="M23.1,78.4l1.1,0.7c0.2,0.1,0.5,0.2,0.7,0.2c0.2,0,0.4-0.1,0.6-0.2c0.2-0.1,0.3-0.2,0.4-0.4c0.1-0.2,0.1-0.3,0.1-0.5
		c0-0.3-0.2-0.7-0.7-1c0,0-0.1,0-0.1-0.1s-0.1-0.1-0.1-0.1V64c-0.1-0.3-0.3-0.5-0.5-0.7S24.1,63,23.9,63s-0.5,0.1-0.7,0.3
		c-0.2,0.2-0.4,0.4-0.4,0.8v13.6c0,0.2,0.1,0.4,0.1,0.5S23,78.3,23.1,78.4z"/>
	<path d="M28.7,77.7c0.4,0.5,0.8,0.9,1.4,1.2c0.6,0.3,1.2,0.4,1.8,0.4c0.6,0,1.3-0.1,1.8-0.4c0.6-0.2,1.1-0.6,1.6-1
		c0.5-0.4,0.9-1,1.2-1.5s0.6-1.2,0.8-1.9c0-0.2,0.1-0.5,0.1-0.7s0-0.5,0-0.8c0-0.6-0.1-1.3-0.3-1.9c-0.2-0.6-0.5-1.2-0.8-1.7
		s-0.8-0.9-1.4-1.2c-0.5-0.3-1.2-0.4-1.8-0.4c-0.8,0-1.5,0.2-2.2,0.6c-0.7,0.4-1.3,0.9-1.8,1.5c-0.5,0.6-0.9,1.3-1.2,2.1
		c-0.3,0.8-0.5,1.6-0.5,2.4c0,0.6,0.1,1.2,0.3,1.8C28,76.7,28.3,77.2,28.7,77.7z M30.1,73.1c0.1-0.3,0.2-0.7,0.4-1.1
		c0.2-0.4,0.4-0.7,0.7-1c0.3-0.3,0.6-0.6,0.9-0.8c0.3-0.2,0.7-0.3,1.1-0.3c0.3,0,0.6,0.1,0.8,0.3c0.2,0.2,0.5,0.4,0.6,0.7
		s0.3,0.6,0.4,1c0.1,0.4,0.1,0.7,0.1,1.1c0,0.4-0.1,0.8-0.2,1.3c-0.1,0.5-0.4,0.9-0.6,1.4c-0.3,0.4-0.6,0.8-1,1.1s-0.8,0.4-1.3,0.4
		c-0.5,0-0.9-0.1-1.2-0.4c-0.3-0.3-0.5-0.6-0.7-1C30,75.3,30,74.8,30,74.4S30,73.5,30.1,73.1z"/>
	<path d="M39.6,70.8c0.2,0.7,0.4,1.5,0.7,2.4c0.2,0.8,0.5,1.6,0.7,2.4c0.3,0.8,0.6,1.6,0.9,2.4c0.3,0.5,0.7,0.7,1.2,0.7
		c0.4,0,0.7-0.2,1-0.5c0.2-0.5,0.4-1,0.6-1.4s0.4-0.9,0.5-1.4c0.2-0.5,0.4-1,0.6-1.5s0.4-1,0.6-1.5c0,0,0,0,0,0c0,0,0,0.1,0,0.1
		c0,0,0,0.1,0.1,0.1c0.4,0.9,0.8,1.9,1.1,2.8c0.4,0.9,0.8,1.8,1.2,2.7c0.3,0.3,0.7,0.5,1,0.5c0.4,0,0.7-0.2,1-0.5
		c0.6-1.4,1.2-2.7,1.6-4s0.9-2.7,1.3-4.1l0.4-1.2c0-0.4-0.1-0.8-0.3-1s-0.5-0.3-0.9-0.3c-0.2,0-0.4,0.1-0.6,0.2
		c-0.2,0.1-0.4,0.3-0.5,0.5l0,0l-0.3,1.2c-0.3,0.9-0.6,1.8-0.8,2.8c-0.3,0.9-0.6,1.8-0.8,2.5c-0.4-0.9-0.8-1.9-1.2-2.8
		C48.4,71,48,70,47.7,69c-0.1-0.3-0.2-0.5-0.5-0.7c-0.2-0.2-0.5-0.2-0.8-0.2c-0.2,0-0.4,0-0.6,0.1c-0.2,0.1-0.4,0.3-0.5,0.5
		l-1.5,3.8c-0.1,0.3-0.3,0.7-0.4,1c-0.1,0.3-0.3,0.6-0.4,1c-0.3-1-0.6-1.9-0.9-2.9c-0.2-1-0.5-2-0.6-3.1c-0.1-0.3-0.3-0.6-0.5-0.7
		c-0.2-0.1-0.5-0.2-0.7-0.2c-0.3,0-0.6,0.1-0.9,0.4s-0.4,0.6-0.3,1C39.3,69.5,39.5,70.1,39.6,70.8z"/>
	<path d="M56.1,76.7c0.3,0.3,0.7,0.7,1.1,1c0.4,0.3,0.9,0.6,1.4,0.8c0.5,0.2,1.1,0.4,1.6,0.5c0.6,0.1,1.1,0.2,1.7,0.1
		c0.6,0,1.3-0.1,1.9-0.3s1.1-0.5,1.6-0.8s0.8-0.8,1.1-1.4c0.3-0.6,0.4-1.2,0.4-1.9c0-0.7-0.2-1.4-0.5-2c-0.3-0.6-0.8-1.1-1.4-1.4
		c-0.7-0.4-1.4-0.7-1.9-0.8c-0.6-0.2-1.2-0.3-1.9-0.5c0,0-0.1,0-0.4-0.1c-0.3-0.1-0.6-0.2-0.9-0.3c-0.3-0.1-0.6-0.3-0.9-0.6
		c-0.3-0.2-0.4-0.5-0.3-0.8c0-0.4,0.2-0.7,0.4-1c0.2-0.3,0.5-0.5,0.8-0.6c0.3-0.2,0.6-0.3,1-0.3c0.4-0.1,0.7-0.1,1.1-0.1
		c0.5,0,0.9,0.1,1.3,0.2c0.4,0.1,0.9,0.2,1.3,0.4c0.2,0.1,0.4,0.1,0.6,0c0.2,0,0.3-0.1,0.5-0.2s0.2-0.2,0.3-0.4
		c0.1-0.2,0.1-0.3,0.1-0.4c0-0.2-0.1-0.4-0.2-0.5s-0.3-0.3-0.5-0.5c-0.4-0.2-0.9-0.4-1.3-0.5c-0.5-0.1-1-0.2-1.6-0.2
		c-0.7,0-1.4,0.1-2.1,0.2s-1.4,0.4-2,0.8c-0.6,0.3-1.1,0.8-1.5,1.3c-0.4,0.6-0.6,1.2-0.6,2c0,0.6,0.1,1.1,0.3,1.6
		c0.2,0.4,0.6,0.8,1,1.1c0.4,0.3,0.9,0.5,1.4,0.7c0.5,0.2,1.1,0.3,1.6,0.4c0.3,0,0.7,0.1,1.2,0.2c0.4,0.1,0.9,0.2,1.2,0.4
		s0.7,0.5,1,0.8c0.3,0.4,0.4,0.8,0.4,1.4c0,0.6-0.2,1-0.6,1.4c-0.4,0.4-1,0.6-1.9,0.6c-0.8,0-1.5-0.1-2.1-0.4
		c-0.6-0.3-1.2-0.6-1.8-1.2c-0.2-0.1-0.3-0.2-0.5-0.3c-0.2-0.1-0.3-0.1-0.5-0.1c-0.3,0-0.6,0.1-0.8,0.3s-0.3,0.4-0.3,0.7
		C55.9,76.2,56,76.4,56.1,76.7L56.1,76.7z"/>
	<path d="M71.5,78.4c0.2,0,0.4,0,0.5,0c0.2,0,0.4,0,0.6,0c1,0,1.9-0.1,2.6-0.4s1.4-0.6,1.9-1.1s0.9-1,1.2-1.7s0.4-1.4,0.4-2.2
		c0-0.7-0.1-1.4-0.4-2c-0.2-0.6-0.6-1.2-1-1.7c-0.4-0.5-0.9-0.9-1.5-1.1c-0.6-0.3-1.2-0.4-1.9-0.4c-0.4,0-0.9,0.1-1.3,0.2
		c-0.4,0.1-0.8,0.3-1.2,0.5c-0.1-0.3-0.3-0.5-0.5-0.6c-0.2-0.1-0.5-0.2-0.7-0.2c-0.3,0-0.5,0.1-0.8,0.3s-0.4,0.4-0.5,0.8v11.9
		c0.8,0,1.7,0,2.5,0V78.4z M71.5,71.6l0.2-0.2c0.3-0.4,0.6-0.7,1-1.1c0.4-0.3,0.8-0.5,1.4-0.5c0.3,0,0.6,0.1,0.9,0.3
		c0.3,0.2,0.5,0.5,0.7,0.8s0.4,0.7,0.5,1.1c0.1,0.4,0.2,0.8,0.2,1.2c0,1-0.3,1.8-1,2.3c-0.7,0.6-1.6,0.8-2.6,0.8
		c-0.4,0-0.7,0-1.1-0.1V71.6z"/>
	<path d="M69.5,84.3c0.2,0.2,0.5,0.3,0.8,0.3c0.3,0,0.6-0.1,0.8-0.3c0.3-0.2,0.4-0.5,0.4-0.9v-2.8c-0.8,0-1.6,0-2.5,0v2.9
		C69.1,83.9,69.3,84.1,69.5,84.3z"/>
	<path d="M90.7,67.7c-0.2-0.2-0.5-0.3-0.8-0.3c-0.5,0-0.9,0.2-1.1,0.7h0c-0.3,1.2-0.7,2.3-1.1,3.3c-0.4,1-0.9,2-1.4,3
		c-0.9-0.8-1.7-1.7-2.3-2.6s-1.1-2.1-1.4-3.4c-0.1-0.3-0.3-0.6-0.5-0.7s-0.5-0.2-0.7-0.2c-0.8,0-1.2,0.5-1.2,1.4
		c0.2,0.8,0.5,1.6,0.8,2.3c0.3,0.7,0.7,1.4,1.1,2c0.4,0.6,0.9,1.2,1.4,1.7c0.5,0.5,1.1,1.1,1.8,1.6l-1.5,2.7c-0.3,0.5-0.6,1-0.9,1.5
		c0,0,0,0,0,0c1.3,0,2,1.5,1.3,2.5c0,0,0.1-0.1,0.1-0.1c0.3-0.5,0.5-0.9,0.8-1.4s0.5-0.9,0.8-1.4c0.5-0.9,1.1-1.9,1.6-2.8
		c0.5-0.9,1-1.9,1.5-2.9c0.5-1,0.9-1.9,1.3-2.9s0.7-2,1-3C91,68.2,90.9,67.9,90.7,67.7z"/>
	<path d="M82.8,80.7c-0.3,0.5-0.6,1-0.9,1.5c0,0.1,0,0.1,0,0.2s0,0.1,0,0.2c0,0.4,0.1,0.7,0.3,0.8c0.2,0.2,0.5,0.3,0.8,0.3
		c0.2,0,0.4,0,0.6-0.1c0.2-0.1,0.3-0.2,0.5-0.4C84.7,82.2,84.1,80.7,82.8,80.7z"/>
</g>
<circle class="st0" cx="37.6" cy="90.6" r="3.4"/>
<circle class="st0" cx="43.7" cy="90.6" r="4.2"/>
<circle class="st0" cx="49.9" cy="92.4" r="4.2"/>
</svg>
